<svg width="80" height="80" viewBox="0 0 80 80" fill="none" xmlns="http://www.w3.org/2000/svg">
<path d="M33.2385 38.1751C30.9117 44.136 31.1348 56.491 36.5081 66.6533C41.8815 76.8156 50.5043 82.3 55.3707 79.0786C60.2473 75.8572 59.5984 63.0258 63.9225 58.386C68.2516 53.7461 77.5536 50.725 79.8145 42.815C82.0703 34.8942 63.1925 27.0871 53.6168 26.7839C44.0258 26.4698 36.9187 28.7275 33.2385 38.1751" fill="#90908C"/>
<path d="M49.3281 0.157385C45.4045 1.15899 43.5948 6.71928 45.2525 12.5503C46.9152 18.3867 51.4115 22.2848 55.3402 21.2832C59.2637 20.2762 61.1242 14.7484 59.4665 8.91201C57.8089 3.08102 53.2516 -0.849638 49.3281 0.157385" fill="#90908C"/>
<path d="M26.0906 41.2667C27.9054 36.0529 23.6371 29.4477 16.4438 26.7731C9.29117 24.0227 2.10811 26.0043 0.379503 31.1856C-1.3491 36.3669 2.99017 42.7663 10.0871 45.4896C17.2195 48.1263 24.2809 46.4642 26.0906 41.2667" fill="#90908C"/>
<path d="M17.311 53.8328C11.6943 53.979 7.27384 57.8176 7.61854 61.9594C7.96832 66.0904 12.6929 69.4633 18.3248 69.2413C23.9466 69.0464 28.3111 65.4569 28.0374 61.2068C27.7637 56.9568 22.9479 53.6488 17.311 53.8328" fill="#90908C"/>
<path d="M35.2153 7.88879C30.1309 1.90621 22.7248 -0.0916219 18.6998 3.46003C14.6799 7.00626 15.5417 14.7322 20.5805 20.6932C25.6649 26.5675 32.8682 28.7926 36.8932 25.3493C40.9131 21.9005 40.2136 14.0392 35.2153 7.88879" fill="#90908C"/>
</svg>
